<?xml version="1.0" encoding="iso-8859-1"?>
<!-- Generator: Adobe Illustrator 18.0.0, SVG Export Plug-In . SVG Version: 6.00 Build 0)  -->
<!DOCTYPE svg PUBLIC "-//W3C//DTD SVG 1.1//EN" "http://www.w3.org/Graphics/SVG/1.1/DTD/svg11.dtd">
<svg version="1.1" id="Capa_1" xmlns="http://www.w3.org/2000/svg" xmlns:xlink="http://www.w3.org/1999/xlink" x="0px" y="0px"
	 viewBox="0 0 463.104 463.104" style="enable-background:new 0 0 463.104 463.104;" xml:space="preserve">
<path d="M382.733,334.067V188.493c0-62.524-38.152-116.305-92.398-139.285C286.744,21.489,263.002,0,234.32,0
	c-27.87,0-51.076,20.29-55.663,46.87c-57.351,21.49-98.285,76.863-98.285,141.624v145.574
	c-23.504,0.735-42.401,20.072-42.401,43.751c0,24.144,19.643,43.786,43.786,43.786h98.1c6.589,23.895,28.503,41.5,54.464,41.5
	s47.875-17.605,54.464-41.5h92.563c24.144,0,43.786-19.643,43.786-43.786C425.134,354.14,406.237,334.804,382.733,334.067z
	 M234.32,20c14.853,0,27.652,8.921,33.346,21.683c-11.577-2.849-23.67-4.371-36.113-4.371c-10.242,0-20.248,1.029-29.924,2.98
	C207.609,28.278,220.013,20,234.32,20z M110.372,188.493c0-66.819,54.361-121.181,121.181-121.181s121.181,54.361,121.181,121.181
	v145.539H110.372V188.493z M234.32,443.104c-14.781,0-27.529-8.837-33.263-21.5h66.526
	C261.85,434.268,249.102,443.104,234.32,443.104z M381.348,391.604H81.757c-7.602,0-13.786-6.185-13.786-13.786
	s6.185-13.786,13.786-13.786h299.591c7.602,0,13.786,6.185,13.786,13.786S388.949,391.604,381.348,391.604z"/>
<g>
</g>
<g>
</g>
<g>
</g>
<g>
</g>
<g>
</g>
<g>
</g>
<g>
</g>
<g>
</g>
<g>
</g>
<g>
</g>
<g>
</g>
<g>
</g>
<g>
</g>
<g>
</g>
<g>
</g>
</svg>
