<svg id="Capa_1" enable-background="new 0 0 512 512" height="512" viewBox="0 0 512 512" width="512" xmlns="http://www.w3.org/2000/svg"><g><path d="m466.5 332h-136v-287c0-8.284-6.716-15-15-15h-45v-15c0-8.284-6.716-15-15-15h-180c-8.284 0-15 6.716-15 15v15h-45c-8.284 0-15 6.716-15 15v452c0 8.284 6.716 15 15 15h300c8.284 0 15-6.716 15-15v-75h136c24.813 0 45-20.187 45-45s-20.187-45-45-45zm-207.459 60-30-15 30-15h162.459v30zm-168.541-362h150v30h-45c-8.284 0-15 6.716-15 15 0 8.271-6.729 15-15 15s-15-6.729-15-15c0-8.284-6.716-15-15-15h-45zm210 452h-270v-422h30v15c0 8.284 6.716 15 15 15h47.57c6.191 17.461 22.874 30 42.43 30s36.239-12.539 42.43-30h47.57c8.284 0 15-6.716 15-15v-15h30v272h-45c-2.329 0-4.625.542-6.708 1.583l-60 30c-5.082 2.541-8.292 7.735-8.292 13.417s3.21 10.875 8.292 13.417l60 30c2.083 1.041 4.379 1.583 6.708 1.583h45zm166-90h-15v-30h15c8.271 0 15 6.729 15 15s-6.729 15-15 15z"/><path d="m255.5 212h-180c-8.284 0-15-6.716-15-15s6.716-15 15-15h180c8.284 0 15 6.716 15 15s-6.716 15-15 15z"/><path d="m255.5 272h-180c-8.284 0-15-6.716-15-15s6.716-15 15-15h180c8.284 0 15 6.716 15 15s-6.716 15-15 15z"/><path d="m165.5 332h-90c-8.284 0-15-6.716-15-15s6.716-15 15-15h90c8.284 0 15 6.716 15 15s-6.716 15-15 15z"/></g></svg>